<?xml version="1.0" encoding="UTF-8"?>
<svg version="1.1" xmlns="http://www.w3.org/2000/svg" width="584" height="350">
<path d="M0 0 C192.72 0 385.44 0 584 0 C584 115.5 584 231 584 350 C391.28 350 198.56 350 0 350 C0 234.5 0 119 0 0 Z " fill="#F6F6F6" transform="translate(0,0)"/>
<path d="M0 0 C10.89 0 21.78 0 33 0 C43.80913323 25.53657726 43.80913323 25.53657726 48 35.5 C48.96417099 37.79044231 49.92855604 40.08079433 50.89306641 42.37109375 C51.70553342 44.3006581 52.51765876 46.23036633 53.32958984 48.16015625 C54.7806364 51.60744312 56.23390292 55.05378791 57.6875 58.5 C58.13931641 59.57443359 58.59113281 60.64886719 59.05664062 61.75585938 C61.16708302 66.75460178 63.31523344 71.72624605 65.58203125 76.65625 C67.89640356 81.70736189 69.9813819 86.82473721 72 92 C72.99806437 94.53332221 73.99821565 97.06580283 75 99.59765625 C75.66934026 101.28930916 76.33598729 102.98203007 77 104.67578125 C78.50314584 108.46300416 80.04046021 112.17873935 81.90234375 115.8046875 C84.77016905 121.3960362 87.13017761 127.20969407 89.5625 133 C90.04396484 134.13695312 90.52542969 135.27390625 91.02148438 136.4453125 C93.47569794 142.26520821 95.77982409 148.07953091 98 154 C86.12 154 74.24 154 62 154 C56.47129959 140.43625499 50.94509537 126.87153524 45.43280029 113.30111694 C44.61889004 111.2974587 43.80481433 109.29386774 42.99072266 107.2902832 C40.46606736 101.07605285 37.94304984 94.86116969 35.42530823 88.64413452 C34.29121203 85.84396118 33.15637025 83.0440905 32.02127075 80.24432373 C31.46869409 78.88117591 30.91634353 77.51793642 30.36422729 76.15460205 C26.73326496 67.19179423 23.05777838 58.25002863 19.18237305 49.3894043 C17.90379334 46.42055837 17 44.26992021 17 41 C16.34 41 15.68 41 15 41 C14.89171875 41.66773438 14.7834375 42.33546875 14.671875 43.0234375 C13.84546134 46.68464222 12.58288306 50.12561086 11.25 53.625 C10.98050537 54.33793213 10.71101074 55.05086426 10.43334961 55.78540039 C8.58811793 60.60825157 6.56141312 65.30909687 4.3671875 69.984375 C1.38137504 76.5702242 -1.26890629 83.30614286 -4 90 C5.24 90 14.48 90 24 90 C25.65 94.29 27.3 98.58 29 103 C30.35879795 106.38078361 31.72370625 109.75798363 33.11132812 113.12695312 C35 117.78240666 35 117.78240666 35 120 C17.84 120 0.68 120 -17 120 C-17.99 123.3 -18.98 126.6 -20 130 C-20.78811342 132.09052627 -21.60995486 134.16898421 -22.48046875 136.2265625 C-22.87903076 137.17611816 -23.27759277 138.12567383 -23.68823242 139.10400391 C-24.18299072 140.26593262 -24.67774902 141.42786133 -25.1875 142.625 C-26.775625 146.37875 -28.36375 150.1325 -30 154 C-41.22 154 -52.44 154 -64 154 C-63.2555328 149.53319679 -62.73181805 146.94036369 -60.953125 143.03515625 C-60.52741211 142.08721191 -60.10169922 141.13926758 -59.66308594 140.16259766 C-59.19676758 139.13956543 -58.73044922 138.1165332 -58.25 137.0625 C-53.95182102 127.4687042 -49.79085978 117.82971813 -45.75 108.125 C-41.14308739 97.07807942 -36.47501367 86.05942526 -31.75 75.0625 C-26.51564931 62.87560049 -21.29755459 50.68197608 -16.10656738 38.47653198 C-15.38322336 36.77595537 -14.65952414 35.0755298 -13.9354248 33.37527466 C-9.21145487 22.28161212 -4.57238001 11.15708353 0 0 Z " fill="#424243" transform="translate(230,98)"/>
<path d="M0 0 C22.81705533 -2.25911439 22.81705533 -2.25911439 29.203125 2.2734375 C31.08059487 5.32617394 32.51309962 8.28272457 33.88232422 11.58154297 C36.16541141 16.52174867 39.31060634 20.99428663 42.25 25.5625 C43.54386479 27.63062681 44.83421239 29.70095807 46.12109375 31.7734375 C48.66902702 35.86625122 51.22408819 39.95445643 53.78515625 44.0390625 C54.96113847 45.92174948 56.13692853 47.80455651 57.3125 49.6875 C57.85745117 50.55383057 58.40240234 51.42016113 58.96386719 52.31274414 C59.46692383 53.12090576 59.96998047 53.92906738 60.48828125 54.76171875 C60.92696533 55.46256592 61.36564941 56.16341309 61.81762695 56.88549805 C63.10674358 59.19089534 64.0687035 61.53083712 65 64 C65.66 64 66.32 64 67 64 C67.26772217 63.278125 67.53544434 62.55625 67.8112793 61.8125 C69.00105595 58.99750163 70.38643954 56.58029966 72.01953125 54 C72.6232959 53.04077637 73.22706055 52.08155273 73.84912109 51.09326172 C74.49703613 50.07248535 75.14495117 49.05170898 75.8125 48 C77.17623952 45.83622626 78.53951207 43.67215815 79.90234375 41.5078125 C80.58925293 40.41887695 81.27616211 39.32994141 81.98388672 38.20800781 C85.47413353 32.65438187 88.91199175 27.06842924 92.34692383 21.48046875 C96.80413164 14.25458169 101.40569617 7.14669485 106 0 C118.21 0 130.42 0 143 0 C143 50.49 143 100.98 143 153 C131.78 153 120.56 153 109 153 C108.67 120.99 108.34 88.98 108 56 C96.00398188 73.99335171 96.00398188 73.99335171 84.125 92.0625 C82.56579346 94.44966988 81.00593885 96.83641433 79.4453125 99.22265625 C79.07513 99.78868561 78.70494751 100.35471497 78.32354736 100.93789673 C74.58379048 106.64850075 70.79724287 112.32748737 67 118 C63.51175902 116.57674514 62.04029749 115.01834581 60.046875 111.8515625 C59.51425049 111.01713623 58.98162598 110.18270996 58.43286133 109.32299805 C57.87751709 108.43265869 57.32217285 107.54231934 56.75 106.625 C55.58251536 104.79005648 54.41454869 102.95541956 53.24609375 101.12109375 C52.40473877 99.79053955 52.40473877 99.79053955 51.54638672 98.43310547 C49.67528836 95.48909439 47.75568914 92.5844016 45.8125 89.6875 C44.89017578 88.30884766 44.89017578 88.30884766 43.94921875 86.90234375 C42.91966523 85.36936125 41.88985554 83.83654919 40.85791016 82.30517578 C38.30904638 78.52136955 35.78256974 74.7238436 33.2734375 70.91357422 C32.05666474 69.0851492 30.81195934 67.27883033 29.5625 65.47265625 C21.79694185 53.97095672 16.76615286 41.35542025 11.49023438 28.57080078 C8.74037999 21.98178207 5.83833498 15.45856191 2.9453125 8.93139648 C2.55601562 8.04395752 2.16671875 7.15651855 1.765625 6.2421875 C1.42305664 5.4672998 1.08048828 4.69241211 0.72753906 3.89404297 C0 2 0 2 0 0 Z " fill="#424243" transform="translate(276,99)"/>
<path d="M0 0 C1.23322676 4.18549688 1.0399478 7.77903542 0 12 C-0.556875 12.721875 -1.11375 13.44375 -1.6875 14.1875 C-2.3371875 15.0846875 -2.3371875 15.0846875 -3 16 C-2.29042763 18.73398135 -2.29042763 18.73398135 -1 21 C-2.65 21 -4.3 21 -6 21 C-6.33 21.66 -6.66 22.32 -7 23 C-7.66 23 -8.32 23 -9 23 C-6.54234965 15.08090444 -3.33181427 7.58014704 0 0 Z " fill="#4C4C4E" transform="translate(199,171)"/>
<path d="M0 0 C-1.43125601 3.91448518 -3.27511292 7.29133338 -5.5 10.8125 C-6.1084375 11.78832031 -6.716875 12.76414063 -7.34375 13.76953125 C-7.8903125 14.50558594 -8.436875 15.24164063 -9 16 C-9.66 16 -10.32 16 -11 16 C-11.66 14.35 -12.32 12.7 -13 11 C-11.35 10.67 -9.7 10.34 -8 10 C-7.87882812 9.36191406 -7.75765625 8.72382813 -7.6328125 8.06640625 C-7.46523438 7.24011719 -7.29765625 6.41382813 -7.125 5.5625 C-6.96257812 4.73878906 -6.80015625 3.91507813 -6.6328125 3.06640625 C-6.42398437 2.38449219 -6.21515625 1.70257813 -6 1 C-4 0 -4 0 0 0 Z " fill="#ECECEC" transform="translate(352,147)"/>
<path d="M0 0 C2.67901932 2.31881505 3.66204403 4.31814468 4.6875 7.6875 C5.06455078 8.89986328 5.06455078 8.89986328 5.44921875 10.13671875 C5.63097656 10.75160156 5.81273437 11.36648437 6 12 C5.38125 11.505 4.7625 11.01 4.125 10.5 C2.16119096 8.80777227 2.16119096 8.80777227 0 9 C0 7.68 0 6.36 0 5 C-0.66 5.66 -1.32 6.32 -2 7 C-2.6875 5.1875 -2.6875 5.1875 -3 3 C-1.5625 1.25 -1.5625 1.25 0 0 Z " fill="#474747" transform="translate(276,133)"/>
<path d="M0 0 C0.66 0.33 1.32 0.66 2 1 C2 1.66 2 2.32 2 3 C10.25 3 18.5 3 27 3 C27 3.33 27 3.66 27 4 C17.76 4 8.52 4 -1 4 C-0.67 2.68 -0.34 1.36 0 0 Z " fill="#E7E7E7" transform="translate(227,184)"/>
<path d="M0 0 C0.33 0.66 0.66 1.32 1 2 C1.66 2 2.32 2 3 2 C4.15837626 6.05431692 3.83691257 8.21812119 2 12 C0.48046875 10.79296875 0.48046875 10.79296875 -1 9 C-1.07421875 6.73828125 -1.07421875 6.73828125 -0.6875 4.3125 C-0.56761719 3.50425781 -0.44773438 2.69601563 -0.32421875 1.86328125 C-0.21722656 1.24839844 -0.11023438 0.63351563 0 0 Z " fill="#484848" transform="translate(226,172)"/>
<path d="M0 0 C4 1 4 1 5.8125 3.9375 C6.204375 4.948125 6.59625 5.95875 7 7 C6.67 7.66 6.34 8.32 6 9 C5.01 9 4.02 9 3 9 C2.01 6.03 1.02 3.06 0 0 Z " fill="#ECECEC" transform="translate(331,206)"/>
<path d="M0 0 C0.99 0 1.98 0 3 0 C3.99 2.64 4.98 5.28 6 8 C4.35 7.67 2.7 7.34 1 7 C1 6.34 1 5.68 1 5 C0.34 5 -0.32 5 -1 5 C-0.67 3.35 -0.34 1.7 0 0 Z " fill="#4C4C4C" transform="translate(322,244)"/>
<path d="M0 0 C0.33 0.66 0.66 1.32 1 2 C1.66 2 2.32 2 3 2 C1.54955729 6.10958767 -0.51110752 9.43258745 -3 13 C-3.66 12.67 -4.32 12.34 -5 12 C-4.54625 11.13375 -4.0925 10.2675 -3.625 9.375 C-2.13733341 6.28523093 -1.0123569 3.27069152 0 0 Z " fill="#ECECEC" transform="translate(362,124)"/>
<path d="M0 0 C0.66 0 1.32 0 2 0 C2.99 2.97 3.98 5.94 5 9 C3.68 9 2.36 9 1 9 C0.63877119 7.68942607 0.28619689 6.37646376 -0.0625 5.0625 C-0.35833984 3.96615234 -0.35833984 3.96615234 -0.66015625 2.84765625 C-0.77230469 2.23792969 -0.88445312 1.62820312 -1 1 C-0.67 0.67 -0.34 0.34 0 0 Z " fill="#4D4D4F" transform="translate(315,225)"/>
<path d="M0 0 C2.41201979 2.41201979 2.75925978 3.62963689 3 7 C1.5625 9.3125 1.5625 9.3125 0 11 C-0.66 8.03 -1.32 5.06 -2 2 C-1.34 2 -0.68 2 0 2 C0 1.34 0 0.68 0 0 Z " fill="#EAEAEA" transform="translate(270,198)"/>
<path d="M0 0 C3.96 0 7.92 0 12 0 C12 0.33 12 0.66 12 1 C10.329375 1.12375 10.329375 1.12375 8.625 1.25 C4.94246056 1.57873787 4.94246056 1.57873787 3.5625 4.0625 C3.376875 4.701875 3.19125 5.34125 3 6 C0 2.25 0 2.25 0 0 Z " fill="#494949" transform="translate(276,99)"/>
<path d="M0 0 C0.66 0.66 1.32 1.32 2 2 C0.02 4.97 0.02 4.97 -2 8 C-2.99 7.01 -3.98 6.02 -5 5 C-3.35 3.35 -1.7 1.7 0 0 Z " fill="#49494B" transform="translate(350,201)"/>
<path d="M0 0 C0.33 0.99 0.66 1.98 1 3 C1.66 3 2.32 3 3 3 C2.42655063 5.86724686 2.1385485 6.8614515 0 9 C-0.66 8.67 -1.32 8.34 -2 8 C-1.49396008 5.83125748 -1.00016187 4.00032373 0 2 C-0.66 1.67 -1.32 1.34 -2 1 C-1.34 0.67 -0.68 0.34 0 0 Z " fill="#49494B" transform="translate(358,184)"/>
<path d="M0 0 C1.5 1.25 1.5 1.25 3 3 C3 4.32 3 5.64 3 7 C2.34 7 1.68 7 1 7 C0.67 7.66 0.34 8.32 0 9 C-1.125 6.1875 -1.125 6.1875 -2 3 C-1.34 2.01 -0.68 1.02 0 0 Z " fill="#49494B" transform="translate(355,142)"/>
<path d="M0 0 C2.34058637 2.12780579 3.70700306 4.11562221 5 7 C4.01 7 3.02 7 2 7 C-0.1875 4.5 -0.1875 4.5 -2 2 C-1.34 1.34 -0.68 0.68 0 0 Z " fill="#EAEAEC" transform="translate(308,168)"/>
<path d="M0 0 C1.32 1.65 2.64 3.3 4 5 C2 8 2 8 0 9 C-0.66 6.69 -1.32 4.38 -2 2 C-1.34 1.34 -0.68 0.68 0 0 Z " fill="#4D4D4E" transform="translate(334,151)"/>
<path d="M0 0 C2.40072955 2.88087546 4.47291037 5.56404834 6 9 C5.01 9 4.02 9 3 9 C3 8.34 3 7.68 3 7 C2.34 7 1.68 7 1 7 C-0.0625 4.625 -0.0625 4.625 -1 2 C-0.67 1.34 -0.34 0.68 0 0 Z " fill="#4D4D4D" transform="translate(309,111)"/>
<path d="M0 0 C1.32 1.65 2.64 3.3 4 5 C3.01 5.99 2.02 6.98 1 8 C0.34 7.34 -0.32 6.68 -1 6 C-0.625 2.875 -0.625 2.875 0 0 Z " fill="#E8E8E8" transform="translate(298,152)"/>
<path d="M0 0 C0.99 0 1.98 0 3 0 C2.625 2.4375 2.625 2.4375 2 5 C1.01 5.495 1.01 5.495 0 6 C-2.125 5.0625 -2.125 5.0625 -4 4 C-2.68 3.34 -1.36 2.68 0 2 C0 1.34 0 0.68 0 0 Z " fill="#4B4B4B" transform="translate(260,98)"/>
<path d="M0 0 C0.33 0.99 0.66 1.98 1 3 C-0.9375 6.1875 -0.9375 6.1875 -3 9 C-3.66 8.67 -4.32 8.34 -5 8 C-5 7.01 -5 6.02 -5 5 C-4.34 5 -3.68 5 -3 5 C-2.67 4.01 -2.34 3.02 -2 2 C-1.34 2 -0.68 2 0 2 C0 1.34 0 0.68 0 0 Z " fill="#4F4F4F" transform="translate(376,163)"/>
<path d="M0 0 C0.99 1.32 1.98 2.64 3 4 C2.01 4.99 1.02 5.98 0 7 C-0.99 6.01 -1.98 5.02 -3 4 C-2.01 2.68 -1.02 1.36 0 0 Z " fill="#E9E9E9" transform="translate(381,158)"/>
<path d="M0 0 C1.2077558 3.62326739 0.54311128 4.64146369 -1 8 C-3.1385485 5.8614515 -3.42655063 4.86724686 -4 2 C-2.68 1.34 -1.36 0.68 0 0 Z " fill="#49494B" transform="translate(294,130)"/>
<path d="M0 0 C3 3.75 3 3.75 3 6 C1.68 6.33 0.36 6.66 -1 7 C-1.625 4.625 -1.625 4.625 -2 2 C-1.34 1.34 -0.68 0.68 0 0 Z " fill="#4C4C4E" transform="translate(268,113)"/>
<path d="M0 0 C0.66 0.66 1.32 1.32 2 2 C0.625 4.5 0.625 4.5 -1 7 C-1.66 7 -2.32 7 -3 7 C-3.1875 4.625 -3.1875 4.625 -3 2 C-2.01 1.34 -1.02 0.68 0 0 Z " fill="#E8E8E8" transform="translate(376,105)"/>
<path d="M0 0 C0.66 0.33 1.32 0.66 2 1 C1.34 2.98 0.68 4.96 0 7 C-0.99 6.34 -1.98 5.68 -3 5 C-2.625 3.0625 -2.625 3.0625 -2 1 C-1.34 0.67 -0.68 0.34 0 0 Z " fill="#3C3C3C" transform="translate(342,208)"/>
<path d="M0 0 C2.5654594 2.5654594 2.54046087 4.47686668 3 8 C2.01 8.495 2.01 8.495 1 9 C0.34 8.67 -0.32 8.34 -1 8 C-1 7.34 -1 6.68 -1 6 C-0.34 6 0.32 6 1 6 C0.67 4.02 0.34 2.04 0 0 Z " fill="#F9F9F9" transform="translate(267,200)"/>
<path d="M0 0 C0.33 0 0.66 0 1 0 C1.125 2.375 1.125 2.375 1 5 C-0.33333333 6.33333333 -1.66666667 7.66666667 -3 9 C-3.33 8.01 -3.66 7.02 -4 6 C-2.125 2.8125 -2.125 2.8125 0 0 Z " fill="#E6E6E7" transform="translate(369,176)"/>
<path d="M0 0 C0.33 0.66 0.66 1.32 1 2 C-0.375 4 -0.375 4 -2 6 C-2.66 6 -3.32 6 -4 6 C-4.33 4.68 -4.66 3.36 -5 2 C-3.35 1.34 -1.7 0.68 0 0 Z " fill="#49494B" transform="translate(261,160)"/>
<path d="M0 0 C0.66 0 1.32 0 2 0 C2.66 2.31 3.32 4.62 4 7 C3.38125 6.505 2.7625 6.01 2.125 5.5 C0.16119096 3.80777227 0.16119096 3.80777227 -2 4 C-2 3.34 -2 2.68 -2 2 C-1.34 2 -0.68 2 0 2 C0 1.34 0 0.68 0 0 Z " fill="#525252" transform="translate(278,138)"/>
<path d="M0 0 C1.32 0.33 2.64 0.66 4 1 C3.67 2.32 3.34 3.64 3 5 C2.01 4.67 1.02 4.34 0 4 C0 2.68 0 1.36 0 0 Z " fill="#EAEAEA" transform="translate(316,183)"/>
<path d="M0 0 C0.33 0.66 0.66 1.32 1 2 C1.66 2.33 2.32 2.66 3 3 C3 3.99 3 4.98 3 6 C1.68 5.67 0.36 5.34 -1 5 C-1.33 3.68 -1.66 2.36 -2 1 C-1.34 0.67 -0.68 0.34 0 0 Z " fill="#3B3B3D" transform="translate(340,162)"/>
<path d="M0 0 C2.5654594 2.5654594 2.54046087 4.47686668 3 8 C2.01 8.495 2.01 8.495 1 9 C-1.125 3.375 -1.125 3.375 0 0 Z " fill="#4C4C4C" transform="translate(283,110)"/>
</svg>
